# xmcd
# Copyright (C) 1995-1998 Ti Kan
#
# Track frame offsets:
#       150
#       21847
#       39299
#       54729
#       70753
#       88639
#       107839
#       126323
#       149797
#       169834
#
# Disc length: 2499 seconds
#
# Revision: 0
# Processed by: cddbd v1.5.2PL0 Copyright (c) Steve Scherf et al.
# Submitted via: CD-Import v1.0
#
DISCID=8f09c10a
DTITLE=Colorblind - Under A Paper Moon
DYEAR=07
DGENRE=
TTITLE0=Anti Love Song
TTITLE1=Only Business
TTITLE2=The Fall
TTITLE3=My Heart Is Grey
TTITLE4=Paper Moon
TTITLE5=The First Day I'm Not Drunk
TTITLE6=Always On My Mind
TTITLE7=Sell My Soul
TTITLE8=Lullaby
TTITLE9=Kings Of Death
EXTD=
EXTT0=
EXTT1=
EXTT2=
EXTT3=
EXTT4=
EXTT5=
EXTT6=
EXTT7=
EXTT8=
EXTT9=
PLAYORDER=
